# xmcd
#
# Track frame offsets: 
#        150
#        15332
#        28155
#        43357
#        58657
#        76205
#        92067
#        102357
#        119170
#        132852
#        147957
#        162922
#        176450
#        189505
#        201080
#        218222
#        233630
#        250295
#        266850
#        273342
#        284697
#        298325
#        310732
#        334272
#
# Disc length: 4595 seconds
#
# Revision: 0
# Processed by: cddbd v1.5.1PL2 Copyright (c) Steve Scherf et al.
# Submitted via: ExactAudioCopy v0.95b3
#
DISCID=7511f118
DTITLE=David Allan Coe - Rough Rider - DAC plus
DYEAR=2005
DGENRE=Country
TTITLE0=Pouring Water On A Drowning Man
TTITLE1=What Made You Change Your Mind
TTITLE2=Ice Cold Love
TTITLE3=Now I Lay Me Down To Cheat
TTITLE4=Rough Rider
TTITLE5=Take Time To Know Her
TTITLE6=Time After Time
TTITLE7=Forever And Never
TTITLE8=Headed For The Country
TTITLE9=Meanwhile Back In Memphis
TTITLE10=Looking In The Mirror
TTITLE11=Lyin' Comes So Easy To Your Lips
TTITLE12=The Last Time She'll Leave Me This Time
TTITLE13=I Gave Up (On Trying To Get Over You)
TTITLE14=Voices
TTITLE15=She Loved The Leavin' Out Of Me
TTITLE16=I'll Never Regret Loving You
TTITLE17=It's A Sad Situation
TTITLE18=Those Low Down Blues
TTITLE19=Whiskey, Whiskey (Take My Mind)
TTITLE20=Couples
TTITLE21=Would You Be My Lady
TTITLE22=David's Blues
TTITLE23=Free Born Ramblin' Man
EXTD=
EXTT0=
EXTT1=
EXTT2=
EXTT3=
EXTT4=
EXTT5=
EXTT6=
EXTT7=
EXTT8=
EXTT9=
EXTT10=
EXTT11=
EXTT12=
EXTT13=
EXTT14=
EXTT15=
EXTT16=
EXTT17=
EXTT18=
EXTT19=
EXTT20=
EXTT21=
EXTT22=
EXTT23=
PLAYORDER=
